<?xml version="1.0" encoding="utf-8"?>
<!-- Generator: Adobe Illustrator 24.3.0, SVG Export Plug-In . SVG Version: 6.00 Build 0)  -->
<svg version="1.1" id="Layer_1" xmlns="http://www.w3.org/2000/svg" xmlns:xlink="http://www.w3.org/1999/xlink" x="0px" y="0px"
	 viewBox="0 0 500 500" style="enable-background:new 0 0 500 500;" xml:space="preserve">
<style type="text/css">
	.st0{fill:#FFFFFF;stroke:#231F20;stroke-miterlimit:10;}
	.st1{fill:#FEFEFE;}
	.st2{fill:#D75B08;}
	.st3{fill:#402F96;}
	.st4{fill:#FF5900;}
	.st5{fill:#25007D;}
	.st6{opacity:0.54;fill:none;stroke:#231F20;stroke-width:7;stroke-miterlimit:10;}
	.st7{fill:#490648;}
</style>
<g>
	<path class="st1" d="M106.6,276.8c0-67.8,0-135.5,0-203.3c0-1.2,0.3-1.5,1.5-1.5c94.7,0,189.3,0,284,0c1.2,0,1.5,0.3,1.5,1.5
		c0,135.5,0,271,0,406.5c0,1.2-0.3,1.5-1.5,1.5c-94.7,0-189.3,0-284,0c-1.2,0-1.5-0.3-1.5-1.5C106.6,412.3,106.6,344.5,106.6,276.8z
		 M213.9,237.8c0.1,4.5-0.4,8.9-0.8,13.4c-0.9,11.6-1.7,23.1-2.5,34.7c-0.4,5.2-0.4,10.4-1.7,15.5c-0.2,1-0.1,1.9,0.4,2.8
		c2.1,4.4,4.2,8.8,6.3,13.2c0.3,0.7,0.6,1.5,1.6,1.6c1.1,0.1,1.4-0.8,1.9-1.5c2.3-4,4.5-8,6.8-11.9c1.1-1.8,1.7-3.7,1.8-5.7
		c0.2-9.1,0.6-18.2,1.3-27.3c0.7-9.9,0.7-19.9,2-29.8c0.1-0.4-0.1-1,0.4-1.1c0.6-0.1,0.6,0.5,0.8,0.8c1.7,2.8,3.3,5.7,5.1,8.5
		c5.3,8.5,10.7,16.9,15.9,25.5c6,9.8,12.2,19.5,19.2,28.6c2.4,3.2,2.4,3.1,0.1,6c-6,7.3-12,14.7-18.8,21.2
		c-6.3,6.1-13.2,11.4-20.9,15.5c-3.6,1.9-7.4,3.5-11.3,4.7c-5.5,1.7-11.2,1.4-16.9,0.9c-5.3-0.5-10.3-1.7-15.1-4.3
		c-4.2-2.3-8.1-5.1-11.8-8.2c-5.2-4.4-10.5-8.6-15.5-13.3c-5.8-5.4-10.9-11.5-15.8-17.7c-4.6-5.8-8.7-11.9-11.2-18.8
		c-3.4-9.4-6.1-18.9-8-28.7c-1.2-6.4-2.4-12.8-1.9-19.3c1.1-13.8,3.9-27.2,9.1-40c1.8-4.6,2.8-9.4,4.7-13.9c0.2-0.5,0.6-1.3-0.1-1.7
		c-0.7-0.4-1.4-0.1-1.9,0.4c-0.6,0.6-1.1,1.3-1.6,2c-2.1,2.8-3.9,5.8-5.5,9c-5,10-9.3,20.3-10.3,31.7c-0.6,7.1-1.9,14.3-2.1,21.4
		c-0.2,7-0.3,14,1,20.9c0.9,4.5,2.5,8.8,3.7,13.2c2.5,9.2,6.4,17.9,10.2,26.7c1.4,3.1,3.7,5.5,5.6,8.3c8.5,12.3,18.4,23.1,30.5,31.9
		c7.6,5.5,15.4,10.8,24.3,14.3c10,4,20.2,5.5,30.8,4.2c7.7-0.9,14.5-4.5,20.8-8.8c4.1-2.8,7.5-6.5,11.2-9.9
		c7.8-7.1,14.4-15.3,21.3-23.3c2.7-3.2,5.2-6.6,8.4-9.3c0.7-0.6,1.2-1.1,2.1-0.1c2.7,3.4,6.1,6.1,9.6,8.7
		c7.1,5.3,15.2,8.3,23.8,10.1c3.1,0.7,6.3,0.7,9.5-0.2c2.6-0.7,4.9-1.9,7.3-3c4-2,8.1-3.7,11.5-6.8c3.7-3.4,6.2-7.5,8.8-11.7
		c2.1-3.5,3.1-7.2,2.9-11.2c-0.2-3.3-0.4-6.6-1.3-9.8c-0.9-3.1-1.9-6.2-4.2-8.6c-4.3-4.6-9.7-7.3-15.5-9.2
		c-6.2-2.1-12.6-2.2-19.1-1.3c-9.3,1.3-17.8,4.5-25.1,10.5c-2.1,1.8-4.1,3.7-6.1,5.6c-0.7,0.6-1.2,1-1.5-0.2
		c-0.2-0.7-0.9-1.2-1.4-1.7c-3.6-3.6-7-7.3-9.9-11.5c-4.2-6.1-8.2-12.4-12.1-18.8c-4.7-7.6-9.9-15-14.4-22.8c-1.2-2.1-2.9-4-3-6.6
		c3.9-2.4,7.9-4.7,11.2-7.8c3.9-3.6,7.8-7.2,10.5-11.9c1.1-2,1.9-4.1,2.8-6.1c1.7-3.7,2.9-7.5,3.9-11.4c1.8-7.8,0.7-15.6-0.5-23.3
		c-1-7.1-4.2-13.3-8.3-19.1c-4.5-6.3-9.7-11.8-16.2-16.1c-2.3-1.6-5-2.5-7.5-3.8c-5.2-2.6-10.6-4.1-16.5-4.1
		c-7.4,0.1-14.8-0.2-22.2,0.2c-7.8,0.4-15.5,0.9-23.3,0.4c-2.8-0.2-5.6-0.1-8.5,0c-0.7,0-1.7,0.1-1.8,1c-0.1,0.8,0.8,1,1.5,1.3
		c0.7,0.3,1.5,0.5,2.2,0.9c4.1,1.8,4.5,5.5,4.2,9.1c-0.5,6.2-0.6,12.4-0.9,18.6c-0.6,13.8-1.1,27.6-1.7,41.5
		c-0.4,11.1-0.6,22.2-1.3,33.3c-0.5,8.8-0.6,17.5-0.9,26.3c-0.3,11-0.7,22-1,33c-0.1,3.7,0.2,7.3,2.1,10.8c1.3,2.5,2.2,5.2,3.2,7.8
		c0.5,1.6,1,3.2,1.8,4.7c0.3,0.5,0.5,1.3,1.4,1.1c0.7-0.1,1-0.8,1.2-1.4c1.5-4.4,3.4-8.6,5.6-12.7c1.6-2.9,3-5.8,3.1-9.3
		c0.2-7.1,0.6-14.2,0.8-21.3c0.1-6.7,0.4-13.4,0.6-20.1c0.2-6.6,0.6-13.3,0.8-19.9c0.1-1.4,0.5-1.7,1.8-1.1c1.7,0.8,3.5,1.6,5.3,2.3
		c4.2,1.7,8.2,3.9,12.9,3.6C213.5,237.5,213.7,237.7,213.9,237.8z M370.2,252.6c0.1-6.1-0.5-12.1-1.6-18.1
		c-1.7-9.7-4.5-19.1-8.3-28.3c-1.7-4.1-2.9-8.3-4.8-12.3c-2.6-5.4-5.5-10.7-8.6-15.8c-1.7-2.9-3.8-5.5-5.9-8.1
		c-1.7-2-3.8-3.7-5.6-5.6c-4-4.1-8.1-8.2-12.6-11.7c-5.1-3.9-10.5-7.3-16.1-10.5c-10.4-5.8-21.1-10.3-32.8-12.5
		c-3.4-0.7-6.9-0.7-10.3-1.3c-4.4-0.8-8.9-1.7-13.4-2.2c-2.4-0.3-4.9-0.3-7.3,0.1c-0.6,0.1-1.3,0.3-1.3,1.1c0,0.7,0.6,1,1.2,1
		c0.6,0.1,1.3,0.2,1.9,0.2c5.5,0.1,10.9,0.8,16.3,1.7c4.6,0.7,9.1,1.5,13.6,2.8c4.3,1.3,8.9,1.7,13.1,3.3
		c8.8,3.5,17.4,7.4,25.3,12.7c8.9,5.9,16.8,13,24.2,20.6c4,4.1,7,8.8,9.7,13.8c3.6,6.6,6.9,13.3,9.8,20.2c2.2,5.3,4.3,10.5,6,16
		c2.6,8.6,4.1,17.5,4.8,26.5c0.8,10.5-0.7,20.8-2.5,31.1c-0.7,4.3-1.6,8.5-3.1,12.7c-0.1,0.2-0.2,0.5-0.2,0.8c0,0.4,0,0.9,0.4,1.1
		c0.5,0.3,0.8-0.1,1.1-0.4c1-1,1.5-2.3,2.1-3.6c1.4-3.2,1.7-6.7,2.2-10.1C369,269.6,370.1,261.2,370.2,252.6z M246.1,378.7
		c3.2,0.5,7.2-0.5,11.2-0.9c11-1,21.6-3.6,32-7.2c7.5-2.6,13.9-7.2,20.8-11c4.8-2.6,8.9-6.4,13.4-9.4c3.1-2.1,5.9-4.5,8-7.6
		c0.3-0.5,0.7-0.9,0.2-1.4c-0.5-0.6-1-0.2-1.4,0c-0.3,0.2-0.5,0.4-0.8,0.6c-3.1,2.2-5.7,4.9-8.8,7.1c-7.1,5-14.2,9.9-21.8,14.2
		c-5.1,2.9-10.3,5.4-15.8,7c-12,3.6-24.5,4.5-36.9,5.9c-3.9,0.4-7.9,0-11.9-0.7c-2.5-0.4-5.1-0.9-7.7-0.8c-0.6,0-1.1,0.1-1.3,0.7
		c-0.1,0.6,0.4,0.8,0.8,1c0.3,0.1,0.6,0.2,0.9,0.3C233.2,377.6,239.1,378.4,246.1,378.7z M283.1,247c-0.4-0.7-0.3-1.1-0.3-1.6
		c0-1.7,0.1-3.3,0.3-4.9c0.1-0.9,0.1-1.9-0.6-2.4c-0.7-0.5-1.8-0.3-2.7,0.1c-0.8,0.3-1.2,1.1-1.6,1.7c-1.1,1.6-1.3,1.7-2.5,0.2
		c-0.4-0.5-0.8-1-1.3-1.4c-1.1-0.9-2.2-0.6-2.3,0.7c-0.3,3.2-0.6,6.5-0.3,9.7c0.1,0.8,0.5,1.4,1.4,1.4c0.9,0,0.9-0.8,1-1.4
		c0.2-1.5,0.3-3.1,0.4-4.6c0-0.7,0.2-1.3,0.9-0.5c1.3,1.3,2.3,0.9,3.3-0.4c0.2-0.3,0.4-0.8,1.2-0.6c0,1.4,0,2.9,0,4.3
		c0,1.3,0.3,2.5,1.1,3.6c0.6,0.7,1.1,0.8,2,0.2c1.2-0.8,2.3-1.6,2.9-3c0.1-0.3,0.3-0.4,0.6-0.4c1.3,0.2,2.8-0.2,3.3,1.9
		c0.5,1.7,1.4,1.9,3.1,1c0.3-0.2,0.6-0.1,0.9,0.1c1.1,0.6,1.6,0,1.7-1c0.1-0.6,0-1.2,0.1-1.7c0.1-0.6-0.3-1.6,0.6-1.8
		c0.8-0.2,1.7,0.3,2.2,1c0.2,0.2,0.2,0.6,0.3,0.9c0.2,0.9,0.4,1.9,0.6,2.8c0.2,1,0.7,1.8,1.9,1.9c1.2,0.1,2.2-0.2,2.9-1.3
		c0.5-0.8,0-1.6-0.6-1.6c-1.7,0.2-1.6-1-1.9-2c-0.2-0.7-0.3-1.4-0.7-1.9c-0.7-1-0.5-1.6,0.4-2.3c1.7-1.4,2-3.4,0.9-5.3
		c-1.8-3-5.2-4.2-8.5-3.1c-2,0.7-2.2,1.7-0.8,3.2c0.3,0.3,0.8,0.5,0.7,1.1c-0.2,2.7-0.7,5.4-0.7,8.1c0,0.2-0.1,0.5-0.3,0.4
		c-0.2,0-0.4-0.1-0.5-0.3c-0.2-0.5-0.4-1-0.6-1.5c-0.6-2.2-0.8-4.5-1.7-6.6c-0.2-0.5-0.2-1.3-1-1.2c-0.7,0.1-1.5-0.1-1.9,1
		c-0.4,1.1-1.1,2.2-1.7,3.2C284.6,244.1,284.2,245.6,283.1,247z M316,217.6c1.5,2.1,2.3,4.3,3.4,6.3c0.6,1.1,1.4,1.7,2.5,0.7
		c0.5-0.5,0.8-0.2,1.2,0.1c1,0.8,1.7,0.3,2-0.7c0.2-0.4,0.3-0.9,0.3-1.4c0.2-1.9,1.8-1.6,2.9-1.6c0.9,0,0.7,1.1,0.8,1.8
		c0.4,1.8,1.1,2.6,2.9,2.9c0.5,0.1,1.3,0.5,1.4-0.3c0.1-0.8,1-1.8-0.2-2.4c-0.9-0.5-1.1-1.3-1.2-2.2c-0.2-1.9-0.4-3.8-0.6-5.7
		c-0.1-1.2-0.5-2.3-1.1-3.5c-0.9-2.1-2.4-2.1-3.6-0.1c-1.3,2.1-1.8,4.5-2.7,6.8c-0.5,1.1-0.8,2.2-1.3,3.3c-0.1,0-0.3-0.1-0.4-0.1
		c0.1-3.7,0.1-7.4,1.2-11c0.3-1,0-1.8-0.7-2.3c-0.9-0.6-1.1,0.5-1.5,1c-1,1.4-1.3,3-1.4,4.7c-0.1,1.2-0.3,2.4-0.4,3.7
		c-1-0.7-1.2-1.5-1.6-2.2c-0.7-1.3-1.5-2.4-2.6-3.4c-1.1-0.9-1.5-0.8-2.1,0.5c-0.4,0.9-0.4,1.8-0.3,2.7c0,2.6-0.2,5.1-0.4,7.7
		c0,0.4,0,0.8-0.5,0.8c-0.4,0-0.5-0.3-0.6-0.6c-1.4-3.4-1.7-7.2-3.3-10.6c-0.3-0.6,0-1.7-1-1.8c-0.8-0.1-1.3,0.7-1.7,1.3
		c-0.2,0.3-0.5,0.6-0.6,0.9c-1.4,3-2.7,6-4.1,9c-0.3,0.6-0.6,1.5,0.3,1.9c0.9,0.4,1.7,0,2-1c0.4-1.1,1-1.8,2.3-1.7
		c0.8,0,1.7-1,2.3-0.5c0.6,0.4,0.7,1.5,1.1,2.2c0.8,1.5,1.5,1.8,3.1,1.1c0.3-0.1,0.5-0.2,0.9-0.1c1.6,0.8,2.4,0.4,2.7-1.2
		C315.6,220.9,315.5,219.4,316,217.6z M272.1,217.7c0,1.4-0.1,2.8,0,4.1c0,0.7,0.6,1.3,1.4,1.3c0.9,0,0.9-0.8,0.9-1.4
		c0.1-1.6,0.1-3.3,0.2-4.9c0-0.3-0.2-0.8,0.3-1c0.5-0.1,0.8,0.2,1,0.6c0.2,0.5,0.5,1,0.6,1.5c0.3,1.3,0.6,2.7,0.9,4
		c0.5,1.8,1.5,2.4,3.3,2.1c0.3-0.1,0.7-0.1,0.9-0.1c1.6,0.4,2.3-0.5,2.8-1.8c0.3-0.7,0.4-1.6,1.6-1.4c0.9,0.1,1.7-1.1,2.3-0.5
		c0.5,0.5,0.5,1.7,0.7,2.5c0,0.1,0.1,0.2,0.1,0.3c0.4,0.7,0.8,1.4,1.7,1.2c0.9-0.2,0.8-1.1,0.7-1.9c-0.3-2.1-0.6-4.2-0.9-6.3
		c-0.2-1.4-0.5-2.8-0.8-4.2c-0.2-0.9-0.7-1.6-1.6-1.7c-1-0.2-1,0.7-1.4,1.3c-2,3-3.1,6.4-4.7,9.6c-0.2,0.5-0.4,1.2-1,1.1
		c-0.7-0.1-1.2-0.6-1.4-1.3c-0.2-0.9-0.3-1.9-0.7-2.8c-0.7-1.5-0.4-2.5,1-3.4c1.4-0.9,1.5-2.4,1-3.9c-0.9-2.7-7.5-4.1-9.5-2.1
		c-0.5,0.5-1,1.5-0.1,1.7c1.5,0.4,1,1.2,0.9,2C272.2,214.1,272,215.9,272.1,217.7z M140.6,182.2c-0.1,1,0.2,1,1,0.9
		c0.6-0.1,0.9-0.6,1.1-1c3.1-5,6.6-9.6,10.2-14.2c3.4-4.3,7.6-7.7,11.6-11.3c0.8-0.7,1.6-1.4,2.7-1.7c2.1-0.5,3.3-2.2,5-3.3
		c0.9-0.6,0.4-1.3-0.4-1.6c-0.6-0.2-1.2,0-1.7,0.3c-1.1,0.7-2.2,1.3-3.3,2c-3.2,2.2-5.7,5-8.6,7.5c-6.2,5.4-11.2,11.8-15.9,18.4
		C141.4,179.3,140.6,180.7,140.6,182.2z M271.3,237.7c-2.9,0.1-2.5,2-2.6,3.8c0,1.3-0.3,2.5-0.5,3.8c-0.2,0.9-0.7,1.7-1.4,2.2
		c-1.5,1.1-2.1,0.8-2.4-1c-0.4-2.4-0.8-4.8-0.7-7.3c0-0.8-0.2-1.6-1.2-1.6c-0.8,0-1.1,0.7-1.3,1.4c-0.1,0.3-0.1,0.6-0.1,0.9
		c-0.1,2.7,0.4,5.3,0.8,7.9c0.3,1.8,2.3,3.3,3.8,3.3c2,0,4.5-1.5,4.9-3.5C271.2,244.3,272.6,241,271.3,237.7z M293.8,222.1
		c-0.3,0.4-1.1-0.5-1.4,0.5c-0.2,0.7,0.3,1.2,0.8,1.6c1.8,1.3,3.6,1.2,5.1-0.3c2.1-2,2.1-4.7-0.2-6.7c-0.9-0.8-2-1.6-2.9-2.4
		c-0.9-0.8-0.7-2,0.5-2.8c0.8-0.6,1.8-1.5,2.6,0.1c0.2,0.3,0.3,0.6,0.7,0.4c0.5-0.2,0.8-0.6,0.7-1.2c-0.2-1.2-0.9-1.9-2.1-2.1
		c-1.8-0.3-4.6,1.8-5.3,3.8c-0.5,1.6,0.3,3.4,2.1,4.5c0.9,0.6,1.9,1.1,2.5,2.2c0.3,0.6,0.5,1.3-0.1,1.5
		C295.9,221.6,295.1,222.7,293.8,222.1z"/>
	<path class="st2" d="M247,231.3c0.1,2.6,1.8,4.5,3,6.6c4.5,7.8,9.7,15.1,14.4,22.8c3.9,6.3,7.9,12.6,12.1,18.8
		c2.9,4.2,6.3,7.9,9.9,11.5c0.5,0.5,1.2,1,1.4,1.7c0.4,1.2,0.9,0.9,1.5,0.2c2-1.9,3.9-3.9,6.1-5.6c7.3-6.1,15.8-9.3,25.1-10.5
		c6.5-0.9,12.9-0.8,19.1,1.3c5.8,2,11.2,4.7,15.5,9.2c2.3,2.5,3.4,5.5,4.2,8.6c0.9,3.2,1.1,6.5,1.3,9.8c0.2,4.1-0.8,7.7-2.9,11.2
		c-2.5,4.2-5.1,8.3-8.8,11.7c-3.4,3.1-7.5,4.8-11.5,6.8c-2.4,1.2-4.7,2.3-7.3,3c-3.2,0.9-6.3,0.9-9.5,0.2
		c-8.6-1.8-16.7-4.8-23.8-10.1c-3.4-2.6-6.8-5.3-9.6-8.7c-0.8-1-1.4-0.5-2.1,0.1c-3.2,2.8-5.6,6.2-8.4,9.3
		c-6.9,8-13.5,16.2-21.3,23.3c-3.7,3.4-7.1,7.1-11.2,9.9c-6.3,4.3-13.1,7.9-20.8,8.8c-10.6,1.3-20.9-0.2-30.8-4.2
		c-8.8-3.5-16.6-8.8-24.3-14.3c-12.1-8.7-22.1-19.6-30.5-31.9c-1.9-2.8-4.3-5.2-5.6-8.3c-3.8-8.7-7.7-17.4-10.2-26.7
		c-1.2-4.4-2.8-8.7-3.7-13.2c-1.3-6.9-1.2-13.9-1-20.9c0.2-7.2,1.5-14.3,2.1-21.4c1-11.4,5.3-21.6,10.3-31.7c1.6-3.2,3.4-6.2,5.5-9
		c0.5-0.7,1-1.4,1.6-2c0.5-0.5,1.2-0.8,1.9-0.4c0.7,0.4,0.3,1.2,0.1,1.7c-2,4.5-2.9,9.3-4.7,13.9c-5.1,12.9-8,26.3-9.1,40
		c-0.5,6.5,0.7,12.9,1.9,19.3c1.9,9.8,4.6,19.4,8,28.7c2.5,7,6.6,13.1,11.2,18.8c5,6.2,10,12.3,15.8,17.7c5,4.6,10.3,8.9,15.5,13.3
		c3.7,3.1,7.5,5.9,11.8,8.2c4.7,2.6,9.8,3.9,15.1,4.3c5.7,0.5,11.4,0.8,16.9-0.9c3.9-1.2,7.7-2.8,11.3-4.7
		c7.8-4.1,14.6-9.5,20.9-15.5c6.9-6.6,12.8-13.9,18.8-21.2c2.3-2.8,2.3-2.8-0.1-6c-6.9-9.2-13.2-18.8-19.2-28.6
		c-5.2-8.6-10.6-17-15.9-25.5c-1.7-2.8-3.4-5.7-5.1-8.5c-0.2-0.3-0.3-0.9-0.8-0.8c-0.5,0.1-0.4,0.7-0.4,1.1
		c-1.3,9.9-1.3,19.9-2,29.8c-0.7,9.1-1.1,18.2-1.3,27.3c0,2.1-0.7,3.9-1.8,5.7c-2.3,3.9-4.5,7.9-6.8,11.9c-0.4,0.7-0.8,1.6-1.9,1.5
		c-1-0.1-1.2-0.9-1.6-1.6c-2.1-4.4-4.2-8.8-6.3-13.2c-0.4-0.9-0.6-1.8-0.4-2.8c1.3-5.1,1.3-10.3,1.7-15.5
		c0.8-11.6,1.6-23.2,2.5-34.7c0.4-4.5,0.9-8.9,0.8-13.4c0.6-0.3,0.5-0.8,0.5-1.2c0.2-2.6,0.5-5.2,0.6-7.8c0.1-2.1,0.5-4.3-0.2-6.5
		c0.1-0.3,0.2-0.6,0.2-0.9c0.3-6.2,0.4-12.3,0.9-18.5c0.8-9.6,1.2-19.1,0-28.7c-0.2-1.5-0.3-3.1-1.3-4.4c-1.2-1.6-0.4-3.5,1.6-3.8
		c0.7-0.1,1.4,0,2.1,0.1c6.2,1,12.5,1.6,18.8,1.3c1.6-0.1,3.2,0,4.8,0.2c0.7,0.1,1.4,0.2,1.7,0.9c0.4,0.8-0.1,1.5-0.7,2
		c-1.5,1.5-2.3,3.3-2.9,5.2c-0.8,2.5-1.4,5-2,7.6c-2.7,11.9-4.5,23.9-5.4,36.1c0,0.5-0.3,1.1,0.4,1.4c-0.2,1.1-0.5,2.3-0.6,3.4
		c-0.2,3.1-0.3,6.1-0.5,9.2c-0.1,1.1,0.3,1.6,1.5,1.3c3-0.5,6-1.3,8.9-2.3C243.8,232,245.3,231.2,247,231.3z M341.3,302.6
		c0-1.5,0-3-0.7-4.4c-2.1-4.3-5.6-6.4-10.2-7c-5.5-0.7-10.7,0.5-15.6,2.8c-5.3,2.4-10.2,5.2-14.4,9.3c-1,1-1.2,1.7,0,2.7
		c2.5,2.3,4.8,4.8,7.2,7.2c0.9,0.9,1.9,1.9,3.2,2.4c3.5,1.2,7,2.4,10.7,3.1c3.8,0.7,7.4,0.1,10.7-2c1.8-1.2,3.6-2.5,5.3-3.8
		c1.9-1.4,3.3-3.1,3.5-5.6C341.2,305.9,341.5,304.3,341.3,302.6z"/>
	<path class="st3" d="M247,231.3c-1.7-0.1-3.1,0.7-4.6,1.2c-2.9,1-5.9,1.7-8.9,2.3c-1.2,0.2-1.5-0.3-1.5-1.3
		c0.2-3.1,0.3-6.1,0.5-9.2c0.1-1.2,0.4-2.3,0.6-3.4c1,0.1,1.5-0.8,2.4-1.1c4.3-1.1,7.8-3.6,11.2-6.4c6.3-5.2,10.3-11.8,12.3-19.6
		c1.5-5.7,2.2-11.5,1-17.4c-0.7-3.7-1.2-7.6-3.2-10.8c-3.2-5.1-7-9.9-11.6-14c-6.9-6.2-14.9-8.7-23.9-8.8
		c-8.4-0.1-15.7,2.9-22.5,7.4c-1.9,1.2-2.9,2.7-2.8,5.1c0.1,3.8-0.1,7.6-0.3,11.5c-0.3,8.3-0.7,16.7-1,25
		c-0.2,5.2-0.4,10.3-0.6,15.5c-0.1,1.9,0.3,3.5,1.9,4.6c3.8,2.9,7,6.5,11.6,8.2c2.4,0.9,4.9,1.5,7.3,2.3c0.7,2.1,0.3,4.3,0.2,6.5
		c-0.1,2.6-0.4,5.2-0.6,7.8c0,0.5,0,1-0.5,1.2c-0.2-0.1-0.4-0.3-0.6-0.3c-4.7,0.4-8.7-1.9-12.9-3.6c-1.8-0.7-3.5-1.5-5.3-2.3
		c-1.2-0.6-1.7-0.2-1.8,1.1c-0.2,6.6-0.6,13.3-0.8,19.9c-0.2,6.7-0.5,13.4-0.6,20.1c-0.2,7.1-0.5,14.2-0.8,21.3
		c-0.1,3.5-1.5,6.4-3.1,9.3c-2.2,4.1-4.1,8.3-5.6,12.7c-0.2,0.6-0.4,1.3-1.2,1.4c-0.8,0.1-1.1-0.6-1.4-1.1c-0.8-1.5-1.2-3.1-1.8-4.7
		c-0.9-2.7-1.8-5.3-3.2-7.8c-1.8-3.4-2.2-7.1-2.1-10.8c0.3-11,0.7-22,1-33c0.3-8.8,0.4-17.6,0.9-26.3c0.6-11.1,0.8-22.2,1.3-33.3
		c0.6-13.8,1.1-27.6,1.7-41.5c0.3-6.2,0.5-12.4,0.9-18.6c0.3-3.6-0.2-7.3-4.2-9.1c-0.7-0.3-1.5-0.6-2.2-0.9
		c-0.7-0.2-1.5-0.5-1.5-1.3c0.1-0.9,1.1-1,1.8-1c2.8-0.1,5.6-0.2,8.5,0c7.8,0.5,15.5,0,23.3-0.4c7.4-0.3,14.8-0.1,22.2-0.2
		c5.9-0.1,11.3,1.4,16.5,4.1c2.5,1.3,5.2,2.2,7.5,3.8c6.4,4.3,11.7,9.8,16.2,16.1c4.1,5.8,7.3,12.1,8.3,19.1
		c1.1,7.7,2.3,15.5,0.5,23.3c-0.9,3.9-2.2,7.7-3.9,11.4c-0.9,2-1.7,4.1-2.8,6.1c-2.6,4.8-6.6,8.3-10.5,11.9
		C254.8,226.6,250.9,228.9,247,231.3z"/>
	<path class="st3" d="M370.2,252.6c-0.1,8.5-1.2,17-2.6,25.4c-0.6,3.4-0.9,6.8-2.2,10.1c-0.5,1.3-1.1,2.5-2.1,3.6
		c-0.3,0.3-0.6,0.7-1.1,0.4c-0.5-0.2-0.4-0.7-0.4-1.1c0-0.3,0.1-0.5,0.2-0.8c1.5-4.1,2.4-8.4,3.1-12.7c1.8-10.3,3.3-20.6,2.5-31.1
		c-0.7-9-2.2-17.8-4.8-26.5c-1.6-5.4-3.8-10.7-6-16c-2.9-6.9-6.2-13.6-9.8-20.2c-2.7-5-5.7-9.7-9.7-13.8
		c-7.4-7.6-15.3-14.7-24.2-20.6c-8-5.2-16.5-9.2-25.3-12.7c-4.2-1.7-8.8-2-13.1-3.3c-4.4-1.3-9-2.1-13.6-2.8
		c-5.4-0.9-10.8-1.6-16.3-1.7c-0.6,0-1.3-0.1-1.9-0.2c-0.6-0.1-1.2-0.4-1.2-1c0-0.8,0.6-1,1.3-1.1c2.4-0.4,4.9-0.4,7.3-0.1
		c4.5,0.5,8.9,1.4,13.4,2.2c3.4,0.6,6.9,0.6,10.3,1.3c11.7,2.3,22.4,6.7,32.8,12.5c5.6,3.1,11,6.6,16.1,10.5
		c4.6,3.5,8.6,7.5,12.6,11.7c1.8,1.9,3.9,3.5,5.6,5.6c2.2,2.6,4.2,5.2,5.9,8.1c3.1,5.1,6,10.4,8.6,15.8c1.9,4,3.1,8.2,4.8,12.3
		c3.8,9.1,6.5,18.5,8.3,28.3C369.7,240.5,370.3,246.6,370.2,252.6z"/>
	<path class="st3" d="M246.1,378.7c-7-0.2-13-1.1-18.9-2.4c-0.3-0.1-0.6-0.1-0.9-0.3c-0.4-0.2-1-0.4-0.8-1c0.1-0.7,0.7-0.7,1.3-0.7
		c2.6,0,5.2,0.4,7.7,0.8c4,0.7,8,1.2,11.9,0.7c12.4-1.4,24.8-2.3,36.9-5.9c5.6-1.7,10.8-4.2,15.8-7c7.5-4.3,14.7-9.2,21.8-14.2
		c3.1-2.2,5.7-4.9,8.8-7.1c0.3-0.2,0.5-0.4,0.8-0.6c0.5-0.3,1-0.6,1.4,0c0.4,0.5,0.1,1-0.2,1.4c-2.2,3.1-4.9,5.6-8,7.6
		c-4.6,3-8.6,6.8-13.4,9.4c-6.9,3.7-13.4,8.4-20.8,11c-10.4,3.6-21,6.2-32,7.2C253.3,378.2,249.3,379.2,246.1,378.7z"/>
	<path class="st3" d="M283.1,247c1.2-1.3,1.5-2.9,2.3-4.3c0.6-1.1,1.3-2.1,1.7-3.2c0.3-1.1,1.2-0.9,1.9-1c0.8-0.2,0.8,0.7,1,1.2
		c0.9,2.1,1.1,4.4,1.7,6.6c0.1,0.5,0.3,1,0.6,1.5c0.1,0.1,0.3,0.3,0.5,0.3c0.2,0,0.3-0.2,0.3-0.4c0-2.7,0.5-5.4,0.7-8.1
		c0-0.6-0.4-0.8-0.7-1.1c-1.4-1.5-1.2-2.6,0.8-3.2c3.3-1.1,6.7,0.1,8.5,3.1c1.1,1.9,0.9,3.9-0.9,5.3c-0.9,0.7-1.2,1.3-0.4,2.3
		c0.4,0.5,0.5,1.3,0.7,1.9c0.3,1,0.2,2.2,1.9,2c0.6-0.1,1.1,0.7,0.6,1.6c-0.7,1.1-1.7,1.4-2.9,1.3c-1.1-0.1-1.6-0.9-1.9-1.9
		c-0.2-0.9-0.4-1.9-0.6-2.8c-0.1-0.3-0.1-0.7-0.3-0.9c-0.6-0.7-1.4-1.2-2.2-1c-0.9,0.2-0.5,1.1-0.6,1.8c-0.1,0.6,0,1.2-0.1,1.7
		c-0.1,1-0.6,1.6-1.7,1c-0.3-0.2-0.5-0.2-0.9-0.1c-1.7,0.9-2.7,0.7-3.1-1c-0.5-2.1-2-1.6-3.3-1.9c-0.3,0-0.5,0.1-0.6,0.4
		c-0.5,1.4-1.7,2.2-2.9,3c-0.9,0.6-1.4,0.5-2-0.2c-0.9-1-1.1-2.3-1.1-3.6c0-1.5,0-2.9,0-4.3c-0.8-0.2-1,0.4-1.2,0.6
		c-1,1.3-2,1.7-3.3,0.4c-0.8-0.8-0.9-0.2-0.9,0.5c-0.1,1.5-0.2,3.1-0.4,4.6c-0.1,0.6-0.1,1.4-1,1.4c-0.9,0-1.4-0.6-1.4-1.4
		c-0.3-3.2,0-6.5,0.3-9.7c0.1-1.3,1.3-1.5,2.3-0.7c0.5,0.4,0.9,0.9,1.3,1.4c1.2,1.5,1.4,1.5,2.5-0.2c0.4-0.7,0.8-1.4,1.6-1.7
		c0.9-0.4,2-0.6,2.7-0.1c0.6,0.4,0.7,1.5,0.6,2.4c-0.2,1.6-0.4,3.3-0.3,4.9C282.8,245.8,282.7,246.3,283.1,247z M296.4,237.7
		c0,0.6,0.2,1.2,0,1.8c-0.1,0.7-0.1,1.4-0.1,2.1c0,0.6,0.2,0.9,0.8,0.7c1.4-0.4,3-2,2.9-2.8c-0.1-1.1-1.4-1.7-3.5-1.8
		C296.6,237.6,296.5,237.7,296.4,237.7z"/>
	<path class="st3" d="M316,217.6c-0.5,1.8-0.4,3.3-0.7,4.8c-0.3,1.7-1.1,2-2.7,1.2c-0.3-0.2-0.6-0.1-0.9,0.1
		c-1.5,0.6-2.3,0.4-3.1-1.1c-0.4-0.8-0.5-1.8-1.1-2.2c-0.7-0.5-1.5,0.5-2.3,0.5c-1.3-0.1-1.9,0.7-2.3,1.7c-0.4,0.9-1.1,1.4-2,1
		c-0.9-0.4-0.5-1.3-0.3-1.9c1.3-3,2.7-6,4.1-9c0.2-0.3,0.4-0.6,0.6-0.9c0.5-0.6,0.9-1.4,1.7-1.3c0.9,0.1,0.7,1.2,1,1.8
		c1.6,3.4,2,7.1,3.3,10.6c0.1,0.3,0.3,0.6,0.6,0.6c0.5,0,0.5-0.5,0.5-0.8c0.2-2.5,0.4-5.1,0.4-7.7c0-0.9-0.1-1.8,0.3-2.7
		c0.6-1.3,1-1.4,2.1-0.5c1.1,1,1.9,2.1,2.6,3.4c0.4,0.7,0.6,1.6,1.6,2.2c0.2-1.4,0.3-2.6,0.4-3.7c0.1-1.7,0.4-3.3,1.4-4.7
		c0.4-0.5,0.6-1.5,1.5-1c0.7,0.5,1,1.3,0.7,2.3c-1.1,3.6-1.1,7.3-1.2,11c0.1,0,0.3,0.1,0.4,0.1c0.4-1.1,0.8-2.2,1.3-3.3
		c1-2.2,1.4-4.7,2.7-6.8c1.2-1.9,2.6-1.9,3.6,0.1c0.5,1.1,0.9,2.2,1.1,3.5c0.2,1.9,0.4,3.8,0.6,5.7c0.1,0.9,0.3,1.7,1.2,2.2
		c1.2,0.6,0.4,1.6,0.2,2.4c-0.1,0.8-0.9,0.4-1.4,0.3c-1.8-0.3-2.5-1.1-2.9-2.9c-0.1-0.7,0.1-1.8-0.8-1.8c-1.1,0.1-2.7-0.2-2.9,1.6
		c-0.1,0.5-0.2,0.9-0.3,1.4c-0.4,1-1,1.5-2,0.7c-0.4-0.3-0.7-0.5-1.2-0.1c-1.1,1-1.9,0.4-2.5-0.7C318.3,221.9,317.6,219.7,316,217.6
		z M328.2,215.2c-0.4,1.1-0.6,1.8-0.9,2.5c-0.1,0.4-0.1,0.8,0.5,0.9c0.7,0.1,0.9-0.3,0.8-0.8C328.5,217,328.7,216.3,328.2,215.2z
		 M306.6,215.5c-0.8,1.1-1.3,1.9-1,2.8c0.1,0.4,1.1,0.4,1.3,0.2C307.7,217.5,306.8,216.7,306.6,215.5z"/>
	<path class="st3" d="M272.1,217.7c-0.2-1.8,0-3.6,0.2-5.4c0.1-0.8,0.6-1.7-0.9-2c-0.8-0.2-0.3-1.2,0.1-1.7c2-2,8.6-0.5,9.5,2.1
		c0.5,1.5,0.4,3-1,3.9c-1.4,0.9-1.7,1.9-1,3.4c0.4,0.9,0.5,1.8,0.7,2.8c0.2,0.8,0.7,1.2,1.4,1.3c0.6,0.1,0.8-0.6,1-1.1
		c1.5-3.2,2.7-6.6,4.7-9.6c0.4-0.5,0.4-1.4,1.4-1.3c1,0.2,1.5,0.8,1.6,1.7c0.3,1.4,0.5,2.8,0.8,4.2c0.3,2.1,0.7,4.2,0.9,6.3
		c0.1,0.7,0.2,1.6-0.7,1.9c-0.9,0.2-1.3-0.5-1.7-1.2c-0.1-0.1-0.1-0.2-0.1-0.3c-0.2-0.9-0.1-2-0.7-2.5c-0.6-0.5-1.5,0.7-2.3,0.5
		c-1.2-0.2-1.3,0.7-1.6,1.4c-0.5,1.3-1.2,2.3-2.8,1.8c-0.3-0.1-0.6,0-0.9,0.1c-1.8,0.3-2.8-0.3-3.3-2.1c-0.3-1.3-0.6-2.7-0.9-4
		c-0.1-0.5-0.3-1-0.6-1.5c-0.2-0.4-0.5-0.8-1-0.6c-0.5,0.1-0.3,0.6-0.3,1c-0.1,1.6-0.1,3.3-0.2,4.9c0,0.6,0,1.4-0.9,1.4
		c-0.8,0-1.3-0.6-1.4-1.3C272.1,220.5,272.1,219.1,272.1,217.7z M274.7,214.9c1.1-0.7,2.1-1.3,3.1-1.9c0.9-0.7,1-1.8,0.2-2.2
		c-1.1-0.5-2.2-0.8-3.4-0.7c-0.5,0-0.9,0.3-0.5,0.8C275,212.1,274.5,213.5,274.7,214.9z M287.6,215.7c-1.4,1.9-1.3,2.1,0.5,2.6
		C288.1,217.4,288,216.6,287.6,215.7z"/>
	<path class="st3" d="M140.6,182.2c0-1.5,0.8-2.8,1.7-4.1c4.7-6.6,9.6-13.1,15.9-18.4c2.9-2.5,5.5-5.4,8.6-7.5
		c1.1-0.7,2.2-1.4,3.3-2c0.5-0.3,1.1-0.5,1.7-0.3c0.8,0.3,1.3,1,0.4,1.6c-1.6,1.1-2.9,2.8-5,3.3c-1,0.3-1.9,1-2.7,1.7
		c-4,3.7-8.2,7-11.6,11.3c-3.6,4.6-7.1,9.2-10.2,14.2c-0.3,0.4-0.5,0.9-1.1,1C140.8,183.2,140.5,183.1,140.6,182.2z"/>
	<path class="st3" d="M271.3,237.7c1.3,3.3-0.2,6.7-0.8,10c-0.4,2-2.8,3.5-4.9,3.5c-1.5,0-3.5-1.6-3.8-3.3c-0.4-2.6-0.9-5.2-0.8-7.9
		c0-0.3,0-0.7,0.1-0.9c0.2-0.7,0.5-1.4,1.3-1.4c0.9,0,1.2,0.8,1.2,1.6c-0.1,2.5,0.4,4.9,0.7,7.3c0.3,1.8,0.9,2.1,2.4,1
		c0.7-0.5,1.3-1.3,1.4-2.2c0.2-1.3,0.5-2.5,0.5-3.8C268.8,239.6,268.5,237.7,271.3,237.7z"/>
	<path class="st3" d="M293.8,222.1c1.3,0.6,2-0.5,3-0.9c0.7-0.3,0.5-1,0.1-1.5c-0.6-1-1.6-1.6-2.5-2.2c-1.8-1.2-2.6-2.9-2.1-4.5
		c0.6-1.9,3.5-4,5.3-3.8c1.2,0.2,1.9,0.9,2.1,2.1c0.1,0.5-0.2,0.9-0.7,1.2c-0.4,0.2-0.5-0.1-0.7-0.4c-0.8-1.5-1.8-0.6-2.6-0.1
		c-1.2,0.8-1.4,2-0.5,2.8c0.9,0.9,2,1.6,2.9,2.4c2.2,2,2.3,4.6,0.2,6.7c-1.5,1.4-3.3,1.5-5.1,0.3c-0.5-0.4-1-0.8-0.8-1.6
		C292.7,221.6,293.5,222.6,293.8,222.1z"/>
	<path class="st1" d="M214.8,222.4c-2.4-0.8-4.9-1.4-7.3-2.3c-4.7-1.7-7.9-5.4-11.6-8.2c-1.5-1.2-2-2.8-1.9-4.6
		c0.3-5.2,0.4-10.3,0.6-15.5c0.3-8.3,0.7-16.7,1-25c0.1-3.8,0.4-7.7,0.3-11.5c-0.1-2.4,1-3.9,2.8-5.1c6.9-4.4,14.1-7.5,22.5-7.4
		c9,0.1,17.1,2.6,23.9,8.8c4.6,4.1,8.4,8.9,11.6,14c2,3.2,2.5,7.1,3.2,10.8c1.2,5.9,0.4,11.7-1,17.4c-2,7.8-5.9,14.4-12.3,19.6
		c-3.4,2.8-6.9,5.3-11.2,6.4c-0.9,0.2-1.4,1.2-2.4,1.1c-0.8-0.3-0.5-0.9-0.4-1.4c0.9-12.2,2.7-24.2,5.4-36.1c0.6-2.5,1.2-5.1,2-7.6
		c0.6-2,1.5-3.8,2.9-5.2c0.5-0.5,1-1.2,0.7-2c-0.3-0.7-1-0.8-1.7-0.9c-1.6-0.2-3.2-0.3-4.8-0.2c-6.3,0.3-12.5-0.2-18.8-1.3
		c-0.7-0.1-1.4-0.2-2.1-0.1c-2,0.3-2.8,2.2-1.6,3.8c1,1.3,1.1,2.9,1.3,4.4c1.2,9.6,0.8,19.1,0,28.7c-0.5,6.1-0.6,12.3-0.9,18.5
		C214.9,221.7,214.8,222.1,214.8,222.4z"/>
	<path class="st1" d="M341.3,302.6c0.2,1.7-0.1,3.3-0.3,4.9c-0.2,2.4-1.6,4.2-3.5,5.6c-1.7,1.3-3.5,2.6-5.3,3.8
		c-3.3,2.1-6.9,2.6-10.7,2c-3.7-0.6-7.2-1.9-10.7-3.1c-1.2-0.4-2.2-1.4-3.2-2.4c-2.4-2.4-4.7-4.9-7.2-7.2c-1.1-1.1-0.9-1.8,0-2.7
		c4.2-4.1,9.1-6.9,14.4-9.3c5-2.3,10.1-3.5,15.6-2.8c4.6,0.6,8.1,2.7,10.2,7C341.3,299.6,341.3,301.1,341.3,302.6z"/>
	<path class="st1" d="M296.4,237.7c0.1,0,0.1-0.1,0.2-0.1c2.1,0,3.4,0.7,3.5,1.8c0.1,0.9-1.5,2.4-2.9,2.8c-0.7,0.2-0.9,0-0.8-0.7
		c0-0.7,0-1.4,0.1-2.1C296.6,238.9,296.4,238.3,296.4,237.7z"/>
	<path class="st1" d="M328.2,215.2c0.5,1.1,0.3,1.9,0.4,2.6c0.1,0.6-0.1,0.9-0.8,0.8c-0.6-0.1-0.6-0.5-0.5-0.9
		C327.6,216.9,327.8,216.2,328.2,215.2z"/>
	<path class="st1" d="M306.6,215.5c0.2,1.3,1.1,2,0.3,2.9c-0.2,0.2-1.1,0.2-1.3-0.2C305.3,217.3,305.8,216.5,306.6,215.5z"/>
	<path class="st1" d="M274.7,214.9c-0.2-1.5,0.2-2.8-0.7-4c-0.4-0.5,0-0.7,0.5-0.8c1.2-0.1,2.3,0.2,3.4,0.7c0.9,0.4,0.8,1.5-0.2,2.2
		C276.9,213.6,275.9,214.2,274.7,214.9z"/>
	<path class="st1" d="M287.6,215.7c0.4,0.9,0.4,1.7,0.5,2.6C286.3,217.8,286.3,217.6,287.6,215.7z"/>
</g>
<circle class="st6" cx="244" cy="251" r="123"/>
</svg>
